<svg xmlns="http://www.w3.org/2000/svg" xmlns:xlink="http://www.w3.org/1999/xlink" width="463.652" height="345.884" viewBox="0 0 463.652 345.884">
  <defs>
    <clipPath id="clip-path">
      <path id="Clip_2" data-name="Clip 2" d="M0,0H463.652V.927H0Z" fill="none"/>
    </clipPath>
  </defs>
  <g id="Illustration" opacity="0.917">
    <g id="Group_3" data-name="Group 3" transform="translate(0 303.228)">
      <path id="Clip_2-2" data-name="Clip 2" d="M0,0H463.652V.927H0Z" fill="none"/>
      <g id="Group_3-2" data-name="Group 3" clip-path="url(#clip-path)">
        <path id="Fill_1" data-name="Fill 1" d="M0,.607H463.652V.375H0Z" transform="translate(0 -0.027)" fill="#e4e4de"/>
      </g>
    </g>
    <path id="Fill_4" data-name="Fill 4" d="M0,.607H49.147V.375H0Z" transform="translate(368.14 318.038)" fill="#e4e4de"/>
    <path id="Fill_5" data-name="Fill 5" d="M0,.607H54.711V.375H0Z" transform="translate(253.154 315.256)" fill="#e4e4de"/>
    <path id="Fill_6" data-name="Fill 6" d="M0,.607H17.619V.375H0Z" transform="translate(352.375 314.329)" fill="#e4e4de"/>
    <path id="Fill_7" data-name="Fill 7" d="M0,.607H39.874V.375H0Z" transform="translate(92.73 311.547)" fill="#d0d9e6"/>
    <path id="Fill_8" data-name="Fill 8" d="M0,.607H13.91V.375H0Z" transform="translate(73.257 311.547)" fill="#d0d9e6"/>
    <path id="Fill_9" data-name="Fill 9" d="M0,.607H50.074V.375H0Z" transform="translate(121.477 315.256)" fill="#d0d9e6"/>
    <path id="Fill_11" data-name="Fill 11" d="M184.355,262.285H5.293A5.3,5.3,0,0,1,0,256.992V5.293A5.3,5.3,0,0,1,5.293,0H184.355a5.3,5.3,0,0,1,5.292,5.293v251.7A5.3,5.3,0,0,1,184.355,262.285ZM5.293.232A5.067,5.067,0,0,0,.232,5.293v251.7a5.067,5.067,0,0,0,5.061,5.062H184.355a5.067,5.067,0,0,0,5.06-5.062V5.293a5.066,5.066,0,0,0-5.06-5.061Z" transform="translate(35.238 0)" fill="#d0d9e6"/>
    <path id="Fill_12" data-name="Fill 12" d="M184.354,262.285H5.292A5.3,5.3,0,0,1,0,256.992V5.293A5.3,5.3,0,0,1,5.292,0H184.354a5.3,5.3,0,0,1,5.293,5.293v251.7A5.3,5.3,0,0,1,184.354,262.285ZM5.292.232A5.066,5.066,0,0,0,.232,5.293v251.7a5.067,5.067,0,0,0,5.06,5.062H184.354a5.067,5.067,0,0,0,5.061-5.062V5.293A5.067,5.067,0,0,0,184.354.232Z" transform="translate(236.462 0)" fill="#d0d9e6"/>
    <path id="Fill_14" data-name="Fill 14" d="M61.084,11.128H4.754A4.683,4.683,0,0,1,0,6.549V4.578A4.682,4.682,0,0,1,4.754,0h56.33a4.683,4.683,0,0,1,4.754,4.578V6.549a4.683,4.683,0,0,1-4.754,4.578" transform="translate(48.22 236.462)" fill="#e3ecfa"/>
    <path id="Fill_15" data-name="Fill 15" d="M19.473,0H10.363L0,55.638H9.111L19.473,0" transform="translate(46.365 247.59)" fill="#dae2f0"/>
    <path id="Fill_16" data-name="Fill 16" d="M14.837,0H5.328L0,55.638H9.509L14.837,0" transform="translate(70.475 247.59)" fill="#dae2f0"/>
    <path id="Fill_17" data-name="Fill 17" d="M0,0H9.111L19.473,55.638h-9.11L0,0" transform="translate(95.512 247.59)" fill="#dae2f0"/>
    <path id="Fill_18" data-name="Fill 18" d="M0,189.17H216.989V0H0Z" transform="translate(182.679 14.837)" fill="#dae2f0"/>
    <path id="Fill_19" data-name="Fill 19" d="M0,189.17H219.771V0H0Z" transform="translate(185.461 14.837)" fill="#e3ecfa"/>
    <path id="Fill_20" data-name="Fill 20" d="M0,3.709H216.989V0H0Z" transform="translate(182.679 203.08)" fill="#ddded8"/>
    <path id="Fill_21" data-name="Fill 21" d="M0,3.709H219.771V0H0Z" transform="translate(189.17 203.08)" fill="#dae2f0"/>
    <path id="Fill_22" data-name="Fill 22" d="M0,177.115H202.152V0H0Z" transform="translate(194.734 20.401)" fill="#fcfeff"/>
    <path id="Fill_23" data-name="Fill 23" d="M0,177.115,37.93,0H63.057L25.126,177.115H0" transform="translate(259.645 20.401)" fill="#fffffe"/>
    <path id="Fill_24" data-name="Fill 24" d="M0,177.115,37.93,0H63.057L25.127,177.115H0" transform="translate(229.971 20.401)" fill="#fffffe"/>
    <path id="Fill_25" data-name="Fill 25" d="M0,.478V165.509c0,.264.375.478.838.478H1.945c.463,0,.837-.215.837-.478V.478C2.782.214,2.408,0,1.945,0H.838C.375,0,0,.214,0,.478" transform="translate(199.37 20.401)" fill="#eaeae5"/>
    <path id="Fill_26" data-name="Fill 26" d="M0,177.115,38.322,0h9.9L9.9,177.115H0" transform="translate(324.556 20.401)" fill="#fffffe"/>
    <path id="Fill_27" data-name="Fill 27" d="M0,177.115H.927V0H0Z" transform="translate(395.959 20.401)" fill="#dae2f0"/>
    <path id="Fill_28" data-name="Fill 28" d="M1.855,4.637H0V0H1.133l.722,4.637" transform="translate(406.159 22.255)" fill="#e3ecfa"/>
    <path id="Fill_29" data-name="Fill 29" d="M0,4.637H9.273V0H0Z" transform="translate(396.886 22.255)" fill="#dae2f0"/>
    <path id="Fill_30" data-name="Fill 30" d="M45.42,5.064H20.354L21.442,0H45.42V5.063Zm-34.9,0H.247L0,0H11.611L10.523,5.063Z" transform="translate(350.521 22.255)" fill="#e3ecfa"/>
    <path id="Fill_31" data-name="Fill 31" d="M10.018,4.637H0L1.109,0H11.128L10.018,4.637" transform="translate(360.721 22.255)" fill="#ebf3ff"/>
    <path id="Fill_32" data-name="Fill 32" d="M0,4.637H.927V0H0Z" transform="translate(395.959 22.255)" fill="#ccd3e0"/>
    <path id="Fill_33" data-name="Fill 33" d="M1.855,4.637H0V0H1.133l.722,4.637" transform="translate(406.159 39.874)" fill="#e3ecfa"/>
    <path id="Fill_34" data-name="Fill 34" d="M0,4.637H9.273V0H0Z" transform="translate(396.886 39.874)" fill="#dae2f0"/>
    <path id="Fill_35" data-name="Fill 35" d="M44.575,5.064h-28.8L16.86,0H44.575V5.063Zm-38.632,0H.247L0,0H7.03L5.942,5.063Z" transform="translate(351.448 39.874)" fill="#e3ecfa"/>
    <path id="Fill_36" data-name="Fill 36" d="M10.018,4.637H0L1.11,0H11.128l-1.11,4.637" transform="translate(357.012 39.874)" fill="#ebf3ff"/>
    <path id="Fill_37" data-name="Fill 37" d="M0,4.637H.927V0H0Z" transform="translate(395.959 39.874)" fill="#ccd3e0"/>
    <path id="Fill_38" data-name="Fill 38" d="M1.855,4.637H0V0H1.133l.722,4.637" transform="translate(406.159 57.493)" fill="#e3ecfa"/>
    <path id="Fill_39" data-name="Fill 39" d="M0,4.637H9.273V0H0Z" transform="translate(396.886 57.493)" fill="#dae2f0"/>
    <path id="Fill_40" data-name="Fill 40" d="M43.728,5.064H11.19L12.278,0h31.45V5.063Zm-42.369,0H.247L0,0H2.449L1.36,5.063Z" transform="translate(352.375 57.493)" fill="#e3ecfa"/>
    <path id="Fill_41" data-name="Fill 41" d="M10.018,4.637H0L1.11,0H11.128L10.018,4.637" transform="translate(353.303 57.493)" fill="#ebf3ff"/>
    <path id="Fill_42" data-name="Fill 42" d="M0,4.637H.927V0H0Z" transform="translate(395.959 57.493)" fill="#ccd3e0"/>
    <path id="Fill_43" data-name="Fill 43" d="M1.855,4.637H0V0H1.133l.722,4.637" transform="translate(406.159 75.112)" fill="#e3ecfa"/>
    <path id="Fill_44" data-name="Fill 44" d="M0,4.637H9.273V0H0Z" transform="translate(396.886 75.112)" fill="#dae2f0"/>
    <path id="Fill_45" data-name="Fill 45" d="M36.165,4.637H0L1.086,0H36.165V4.637" transform="translate(359.794 75.112)" fill="#e3ecfa"/>
    <path id="Fill_46" data-name="Fill 46" d="M6.368,4.637H.238L0,0H7.418L6.368,4.637" transform="translate(353.303 75.112)" fill="#ebf3ff"/>
    <path id="Fill_47" data-name="Fill 47" d="M0,4.637H.927V0H0Z" transform="translate(395.959 75.112)" fill="#ccd3e0"/>
    <path id="Fill_48" data-name="Fill 48" d="M1.855,4.637H0V0H1.133l.722,4.637" transform="translate(406.159 91.803)" fill="#e3ecfa"/>
    <path id="Fill_49" data-name="Fill 49" d="M0,4.637H9.273V0H0Z" transform="translate(396.886 91.803)" fill="#dae2f0"/>
    <path id="Fill_50" data-name="Fill 50" d="M39.874,4.637H0L1.085,0H39.874V4.637" transform="translate(356.085 91.803)" fill="#e3ecfa"/>
    <path id="Fill_51" data-name="Fill 51" d="M1.81,4.637H.22L0,0H2.782L1.81,4.637" transform="translate(353.303 91.803)" fill="#ebf3ff"/>
    <path id="Fill_52" data-name="Fill 52" d="M0,4.637H.927V0H0Z" transform="translate(395.959 91.803)" fill="#ccd3e0"/>
    <path id="Fill_53" data-name="Fill 53" d="M1.855,4.637H0V0H1.133l.722,4.637" transform="translate(406.159 109.422)" fill="#e3ecfa"/>
    <path id="Fill_54" data-name="Fill 54" d="M0,4.637H9.273V0H0Z" transform="translate(396.886 109.422)" fill="#dae2f0"/>
    <path id="Fill_55" data-name="Fill 55" d="M40.8,4.637H1.96C1.5,3.922.864,2.961.1,1.879L0,0H40.8V4.637" transform="translate(354.23 109.422)" fill="#e3ecfa"/>
    <path id="Fill_56" data-name="Fill 56" d="M0,4.637H.927V0H0Z" transform="translate(395.959 109.422)" fill="#ccd3e0"/>
    <path id="Fill_57" data-name="Fill 57" d="M1.855,4.637H0V0H1.133l.722,4.637" transform="translate(406.159 31.528)" fill="#e3ecfa"/>
    <path id="Fill_58" data-name="Fill 58" d="M0,4.637H9.273V0H0Z" transform="translate(396.886 31.528)" fill="#dae2f0"/>
    <path id="Fill_59" data-name="Fill 59" d="M45,5.064H18.063L19.152,0H45V5.063Zm-36.765,0H.247L0,0H9.321L8.232,5.063Z" transform="translate(350.521 31.528)" fill="#e3ecfa"/>
    <path id="Fill_60" data-name="Fill 60" d="M10.018,4.637H0L1.109,0H11.128L10.018,4.637" transform="translate(358.867 31.528)" fill="#ebf3ff"/>
    <path id="Fill_61" data-name="Fill 61" d="M0,4.637H.927V0H0Z" transform="translate(395.959 31.528)" fill="#ccd3e0"/>
    <path id="Fill_62" data-name="Fill 62" d="M1.855,4.637H0V0H1.133l.722,4.637" transform="translate(406.159 49.147)" fill="#e3ecfa"/>
    <path id="Fill_63" data-name="Fill 63" d="M0,4.637H9.273V0H0Z" transform="translate(396.886 49.147)" fill="#dae2f0"/>
    <path id="Fill_64" data-name="Fill 64" d="M44.151,5.064H13.48L14.569,0H44.151V5.063Zm-40.5,0H.245L0,0H4.74L3.65,5.063Z" transform="translate(351.448 49.147)" fill="#e3ecfa"/>
    <path id="Fill_65" data-name="Fill 65" d="M10.018,4.637H0L1.11,0H11.128L10.018,4.637" transform="translate(355.157 49.147)" fill="#ebf3ff"/>
    <path id="Fill_66" data-name="Fill 66" d="M0,4.637H.927V0H0Z" transform="translate(395.959 49.147)" fill="#ccd3e0"/>
    <path id="Fill_67" data-name="Fill 67" d="M1.855,4.637H0V0H1.133l.722,4.637" transform="translate(406.159 65.839)" fill="#e3ecfa"/>
    <path id="Fill_68" data-name="Fill 68" d="M0,4.637H9.273V0H0Z" transform="translate(396.886 65.839)" fill="#dae2f0"/>
    <path id="Fill_69" data-name="Fill 69" d="M34.406,5.064H0L1.089,0H34.406V5.063Z" transform="translate(361.274 65.839)" fill="#e3ecfa"/>
    <path id="Fill_70" data-name="Fill 70" d="M9.085,4.637H.223L0,.548.132,0H10.2L9.085,4.637" transform="translate(352.375 65.839)" fill="#ebf3ff"/>
    <path id="Fill_71" data-name="Fill 71" d="M0,4.637H.927V0H0Z" transform="translate(395.959 65.839)" fill="#ccd3e0"/>
    <path id="Fill_72" data-name="Fill 72" d="M1.855,4.637H0V0H1.133l.722,4.637" transform="translate(406.159 83.457)" fill="#e3ecfa"/>
    <path id="Fill_73" data-name="Fill 73" d="M0,4.637H9.273V0H0Z" transform="translate(396.886 83.457)" fill="#dae2f0"/>
    <path id="Fill_74" data-name="Fill 74" d="M38.019,4.637H0L1.085,0H38.019V4.637" transform="translate(357.939 83.457)" fill="#e3ecfa"/>
    <path id="Fill_75" data-name="Fill 75" d="M4.443,4.637H.254L0,0H5.564L4.443,4.637" transform="translate(353.303 83.457)" fill="#ebf3ff"/>
    <path id="Fill_76" data-name="Fill 76" d="M0,4.637H.927V0H0Z" transform="translate(395.959 83.457)" fill="#ccd3e0"/>
    <path id="Fill_77" data-name="Fill 77" d="M1.855,4.637H0V0H1.133l.722,4.637" transform="translate(406.159 101.076)" fill="#e3ecfa"/>
    <path id="Fill_78" data-name="Fill 78" d="M0,4.637H9.273V0H0Z" transform="translate(396.886 101.076)" fill="#dae2f0"/>
    <path id="Fill_79" data-name="Fill 79" d="M41.729,4.637H.1L0,2.865.678,0H41.729V4.637" transform="translate(354.23 101.076)" fill="#e3ecfa"/>
    <path id="Fill_80" data-name="Fill 80" d="M.207,2.782.055,0H.88L.207,2.782" transform="translate(354.226 101.076)" fill="#e9e9e4"/>
    <path id="Fill_81" data-name="Fill 81" d="M0,4.637H.927V0H0Z" transform="translate(395.959 101.076)" fill="#ccd3e0"/>
    <path id="Fill_82" data-name="Fill 82" d="M1.855,4.637H0V0H1.133l.722,4.637" transform="translate(406.159 118.695)" fill="#e3ecfa"/>
    <path id="Fill_83" data-name="Fill 83" d="M0,4.637H9.273V0H0Z" transform="translate(396.886 118.695)" fill="#dae2f0"/>
    <path id="Fill_84" data-name="Fill 84" d="M38.947,4.637H2.82q-.531-.962-1.093-1.9C1.18,1.8.6.892,0,0H38.947V4.637" transform="translate(356.085 118.695)" fill="#e3ecfa"/>
    <path id="Fill_85" data-name="Fill 85" d="M0,4.637H.927V0H0Z" transform="translate(395.959 118.695)" fill="#ccd3e0"/>
    <path id="Fill_86" data-name="Fill 86" d="M0,86.239H28.746V0H0Z" transform="translate(370.921 217.916)" fill="#ddded8"/>
    <path id="Fill_87" data-name="Fill 87" d="M18.511,10.2H36.165V0H0L18.511,10.2" transform="translate(363.503 293.955)" fill="#e3ecfa"/>
    <path id="Fill_88" data-name="Fill 88" d="M0,86.239H28.746V0H0Z" transform="translate(284.682 217.916)" fill="#dae2f0"/>
    <path id="Fill_89" data-name="Fill 89" d="M0,84.385H101.076V0H0Z" transform="translate(298.592 217.916)" fill="#e3ecfa"/>
    <path id="Fill_90" data-name="Fill 90" d="M17.654,10.2H0V0H36.165L17.654,10.2" transform="translate(298.592 293.955)" fill="#e3ecfa"/>
    <path id="Fill_91" data-name="Fill 91" d="M0,43.583H74.184V0H0Z" transform="translate(311.574 227.189)" fill="#fcfeff"/>
    <path id="Fill_92" data-name="Fill 92" d="M0,20.4H74.184V0H0Z" transform="translate(311.574 275.409)" fill="#fcfeff"/>
    <path id="Fill_93" data-name="Fill 93" d="M17.427,3.709H3.9A3.808,3.808,0,0,1,0,0H21.328a3.808,3.808,0,0,1-3.9,3.709" transform="translate(337.539 225.335)" fill="#e4e4de"/>
    <path id="Fill_94" data-name="Fill 94" d="M17.427,3.709H3.9A3.809,3.809,0,0,1,0,0H21.328a3.808,3.808,0,0,1-3.9,3.709" transform="translate(337.539 273.555)" fill="#e3ecfa"/>
    <path id="Fill_95" data-name="Fill 95" d="M0,86.239H28.746V0H0Z" transform="translate(261.5 217.916)" fill="#e3ecfa"/>
    <path id="Fill_96" data-name="Fill 96" d="M18.511,10.2H36.165V0H0L18.511,10.2" transform="translate(255.009 293.955)" fill="#e3ecfa"/>
    <path id="Fill_97" data-name="Fill 97" d="M0,86.239H28.746V0H0Z" transform="translate(176.188 217.916)" fill="#dae2f0"/>
    <path id="Fill_98" data-name="Fill 98" d="M0,84.385H101.076V0H0Z" transform="translate(189.17 217.916)" fill="#e3ecfa"/>
    <path id="Fill_99" data-name="Fill 99" d="M17.655,10.2H0V0H36.165L17.655,10.2" transform="translate(189.17 293.955)" fill="#e3ecfa"/>
    <path id="Fill_100" data-name="Fill 100" d="M0,43.583H74.184V0H0Z" transform="translate(203.08 227.189)" fill="#fcfeff"/>
    <path id="Fill_101" data-name="Fill 101" d="M0,20.4H74.184V0H0Z" transform="translate(203.08 275.409)" fill="#fcfeff"/>
    <path id="Fill_102" data-name="Fill 102" d="M17.427,3.709H3.9A3.808,3.808,0,0,1,0,0H21.328a3.808,3.808,0,0,1-3.9,3.709" transform="translate(229.044 225.335)" fill="#e4e4de"/>
    <path id="Fill_103" data-name="Fill 103" d="M17.427,3.709H3.9A3.808,3.808,0,0,1,0,0H21.328a3.808,3.808,0,0,1-3.9,3.709" transform="translate(229.044 273.555)" fill="#e3ecfa"/>
    <path id="Fill_104" data-name="Fill 104" d="M0,3.709H209.571V0H0Z" transform="translate(189.17 214.207)" fill="#dae2f0"/>
    <path id="Fill_105" data-name="Fill 105" d="M0,3.709H13.91V0H0Z" transform="translate(176.188 214.207)" fill="#d4d5cf"/>
    <path id="Fill_106" data-name="Fill 106" d="M1.557,87.835C.216,53.968-1.215,20.292,1.714,3.305L6.491,0S5.444,3.167,4.9,55.056C4.513,91.124,4.067,89.164,4.027,87.2c-.018-.86.043-1.72.221.631H1.557" transform="translate(76.966 135.386)" fill="#ddded8"/>
    <path id="Fill_107" data-name="Fill 107" d="M6.053,44.259C13.189,25.551,29.815,7.486,47.879.1c7.092-2.9-3.126,60.9-28.839,65.01C6.484,67.115,2.575,99.449.458,114.986c-.718-30.556-1.54-52.017,5.6-70.726" transform="translate(79.748 58.42)" fill="#ddded8"/>
    <path id="Fill_108" data-name="Fill 108" d="M5.048,19.106C10.063,11.151,18.262.011,30.24,0c13.578-.012,1.7,22.361-14.264,29.507C8.183,33,1.686,44.071,0,51c.14-14.047.033-23.94,5.048-31.9" transform="translate(78.821 130.75)" fill="#ddded8"/>
    <path id="Fill_109" data-name="Fill 109" d="M53.328,38.291C44.584,22.794,25.095,7.211,4.345.121-3.8-2.662-4.6,43.241,39.317,54.226,53.5,57.773,59.188,82.886,62.129,95.512c-.245-24.522-.058-41.726-8.8-57.222" transform="translate(18.546 88.094)" fill="#dae2f0"/>
    <path id="Fill_110" data-name="Fill 110" d="M37.543,13.849C31.917,4,16.622-.809,2.867.111c-5.4.36-5.991,20.567,24.049,28.37C36.028,30.847,39.7,46.69,41.6,54.711c-.158-15.58,1.574-31.017-4.053-40.862" transform="translate(39.874 149.296)" fill="#dae2f0"/>
    <path id="Fill_111" data-name="Fill 111" d="M31.655,31.658C27.3,17.747,14.467,5.278,2.688.124-1.937-1.9-3.359,21.169,21.922,43.752,29.59,50.6,32.007,70.558,33.257,80.675c.573-18.062,2.752-35.107-1.6-49.018" transform="translate(45.438 78.821)" fill="#dae2f0"/>
    <path id="Fill_112" data-name="Fill 112" d="M19.01,29.674C9.739,29.674,2.077,29,1.544,16.458L0,0H38.019L36.475,16.458C35.943,29,28.281,29.674,19.01,29.674" transform="translate(61.202 206.789)" fill="#e3ecfa"/>
    <path id="Fill_113" data-name="Fill 113" d="M38.794,7.418H1.08L0,0H39.874l-1.08,7.418" transform="translate(59.347 205.861)" fill="#e3ecfa"/>
    <path id="Fill_115" data-name="Fill 115" d="M359.794,10.664c0,5.89-80.542,10.664-179.9,10.664S0,16.554,0,10.664,80.543,0,179.9,0s179.9,4.775,179.9,10.664" transform="translate(51.929 324.556)" fill="#e3ecfa" opacity="0.601"/>
    <path id="Fill_117" data-name="Fill 117" d="M.918,18.546,0,.045.936,0l.918,18.5-.936.045" transform="translate(66.766 39.874)" fill="#3f8cff"/>
    <path id="Fill_118" data-name="Fill 118" d="M.3,9.273,0,.045.626,0l.3,9.227L.3,9.273" transform="translate(67.693 64.911)" fill="#3f8cff"/>
    <path id="Fill_119" data-name="Fill 119" d="M11.614,208.643a1.644,1.644,0,0,1-1.64-1.566L0,1.727A1.645,1.645,0,0,1,1.644,0H279.561A1.644,1.644,0,0,1,281.2,1.567l9.969,205.351a1.645,1.645,0,0,1-1.64,1.726Z" transform="translate(68.62 20.401)" fill="#3f8cff"/>
    <path id="Fill_120" data-name="Fill 120" d="M267.772,201.565H11.3A1.641,1.641,0,0,1,9.656,200L0,1.724A1.645,1.645,0,0,1,1.644,0H273.169a1.642,1.642,0,0,1,1.642,1.564l3.951,81.126a24.428,24.428,0,0,0-6.172-5.905,10.375,10.375,0,0,0-5.149-1.7l-.391-.021c-1.508-1.456-2.346-3.758-2.492-6.841a32.726,32.726,0,0,1,.8-8.059L255.125,65.87c.6,2.514,1.155,7.039-1.8,9.091-.543.032-1.016.066-1.445.105-1.487.135-3.1.354-4.788.653a9.635,9.635,0,0,0-1.088.259,14.621,14.621,0,0,0-4.759,2.506c-3.661,2.757-6.824,7.136-8.833,10.324a64.026,64.026,0,0,0-3.517,6.321l1.681.921c-1.514,1.668-3.15,3.366-4.861,5.049-1.585,1.55-3.178,3.037-4.864,4.612l0,0-.809.756-.029,0c-.045,0-.091.009-.139.011s-.128.006-.2.006a6.47,6.47,0,0,1-1.554-.218,17.313,17.313,0,0,1-3.031-1.107c.062-1.185.115-2.341.158-3.438l8.467-.277c.555-5.154-.409-13.713-1.316-19.985-1.015-8.615-2.8-18.521-4.4-27.13l-8.447.536-2.093-42.992a.856.856,0,0,0-.846-.8h-.035a.841.841,0,0,0-.8.88l2.095,43.019-34.611,2.2.028.125.289,1.278c0,.006,0,.013,0,.019.167.745.332,1.49.492,2.217,1.313,6.064,2.368,12.144,3.137,18.071l-5.643-.884a210.686,210.686,0,0,1-1.182,23.717,158.131,158.131,0,0,1-3.438,20.209l44.592,8.362,2.892,59.392a.839.839,0,0,0,.839.8h.042a.842.842,0,0,0,.8-.88l-3.14-64.477c.589-3.063,1.092-6.851,1.5-11.259.29.133.6.266.919.4a15.1,15.1,0,0,0,3.873,1,10.883,10.883,0,0,0,1.265.073,10.411,10.411,0,0,0,3.532-.6l.624-.225.763-.628c.48-.4.965-.79,1.477-1.209l.028-.022c1.766-1.44,3.592-2.93,5.335-4.494,2.066-1.825,4-3.673,5.762-5.493.013,1.017.034,2.067.065,3.122.011.489.029.987.052,1.583.288,7.923,1.062,17.082,2.3,27.222h6.93l-2.384,8,4.979,1.482c-.01.072-.021.143-.032.215v.006q-.014.094-.028.188l5.364,1.169.256.078c3.322,15.254,7.95,36.468,11.141,50.9.388,1.755.754,3.409,1.091,4.93ZM76.047,169.8h0l.968,19.884a.842.842,0,0,0,.84.8H77.9a.842.842,0,0,0,.8-.88l-.973-19.975,23.5-2.388c-.119-10.5-5.506-34.8-8.7-43.923l-16.959,2.015L74.115,95.5l5.275-.284a403.159,403.159,0,0,1-4.6-44.9l-2.867.11L70.044,11.881a.856.856,0,0,0-.846-.8h-.035a.843.843,0,0,0-.8.88L70.238,50.49,31.036,52a281.745,281.745,0,0,0,3.571,45.626L72.434,95.59l1.458,29.944-24.687,2.933c3.559,12.552,4.489,24.263,5.309,34.595.245,3.092.477,6.012.768,8.85L76.046,169.8ZM90.769,64.33l0,44.63,45.016,2.716,0-44.629Zm192.4,108.88c-1.1-6.265-2.319-13.107-3.636-20.335l2.687.8.951,19.534Zm-3.243-66.644h0l-4.252-.927c.043-1.43.1-2.753.159-4.044l.714-.728a63.851,63.851,0,0,1,3.374,5.59l.006.108Z" transform="translate(72.329 24.11)" fill="#f4f9fd"/>
    <text id="To_Do" data-name="To Do" transform="matrix(1, -0.017, 0.017, 1, 109.039, 48.107)" fill="#3f8cff" font-size="10" font-family="SegoeUI, Segoe UI"><tspan x="-12.866" y="0">To Do</tspan></text>
    <text id="In_Progress" data-name="In Progress" transform="matrix(1, -0.017, 0.017, 1, 174.822, 48.125)" fill="#3f8cff" font-size="10" font-family="SegoeUI, Segoe UI"><tspan x="-24.539" y="0">In Progress</tspan></text>
    <text id="In_Review" data-name="In Review" transform="matrix(1, -0.017, 0.017, 1, 242.225, 48.13)" fill="#3f8cff" font-size="10" font-family="SegoeUI, Segoe UI"><tspan x="-20.823" y="0">In Review</tspan></text>
    <text id="Done" transform="matrix(1, -0.017, 0.017, 1, 310.191, 48.109)" fill="#3f8cff" font-size="10" font-family="SegoeUI, Segoe UI"><tspan x="-11.88" y="0">Done</tspan></text>
    <path id="Fill_121" data-name="Fill 121" d="M9.369,178.97a.836.836,0,0,1-.829-.8L0,.88A.837.837,0,0,1,.791,0,.847.847,0,0,1,1.66.8L10.2,178.09a.836.836,0,0,1-.789.879H9.369" transform="translate(140.95 35.238)" fill="#3f8cff"/>
    <path id="Fill_122" data-name="Fill 122" d="M9.368,178.97a.835.835,0,0,1-.828-.8L0,.88A.837.837,0,0,1,.79,0a.852.852,0,0,1,.87.8L10.2,178.09a.837.837,0,0,1-.79.879H9.368" transform="translate(278.191 35.238)" fill="#3f8cff"/>
    <path id="Fill_123" data-name="Fill 123" d="M9.369,178.97a.836.836,0,0,1-.829-.8L0,.88A.837.837,0,0,1,.791,0,.841.841,0,0,1,1.66.8L10.2,178.09a.837.837,0,0,1-.79.879h-.04" transform="translate(209.571 35.238)" fill="#3f8cff"/>
    <path id="Fill_124" data-name="Fill 124" d="M258.8,1.855H.841A.887.887,0,0,1,0,.927.887.887,0,0,1,.841,0H258.8a.887.887,0,0,1,.841.927.887.887,0,0,1-.841.927" transform="translate(81.603 52.856)" fill="#3f8cff"/>
    <path id="Fill_129" data-name="Fill 129" d="M3.577,47.314h0A281.824,281.824,0,0,1,.006,1.688L39.209.175l2.2,45.1L3.577,47.314Zm39.508-2.13L40.891.11,43.758,0a403.368,403.368,0,0,0,4.6,44.9l-5.274.284Z" transform="translate(102.93 74.184)" fill="#dadfe4"/>
    <path id="Fill_130" data-name="Fill 130" d="M2.1,45.438,0,.065,1.61,0l2.1,45.346L2.1,45.438" transform="translate(142.805 74.184)" fill="#b0c9df"/>
    <path id="Fill_131" data-name="Fill 131" d="M49.147,44.879,4.58,47.292A332.356,332.356,0,0,1,0,2.414L44.568,0a406.18,406.18,0,0,0,4.579,44.879" transform="translate(102.931 72.33)" fill="#12499a"/>
    <path id="Fill_132" data-name="Fill 132" d="M45.436,47.292,0,44.579,0,0,45.438,2.713l0,44.579" transform="translate(163.205 88.094)" fill="#dadfe4"/>
    <path id="Fill_133" data-name="Fill 133" d="M44.91,47.292,0,44.595.528,0l44.91,2.7-.528,44.6" transform="translate(162.278 87.167)" fill="#fffffe"/>
    <path id="Fill_134" data-name="Fill 134" d="M41.172,40.912h0c.029-.753.053-1.446.074-2.12l7.706-.4c.47-4.356.264-10.16-.63-17.745.907,6.278,1.871,14.842,1.316,19.986l-8.465.277ZM3.484,18.124h0l-.346-.054C2.367,12.136,1.312,6.057,0,0,1.491,6.8,2.63,12.724,3.484,18.123Z" transform="translate(246.231 84.767)" fill="#dadfe4"/>
    <path id="Fill_135" data-name="Fill 135" d="M6.23,47.292l43.6-2.249C50.948,34.648,48.054,17.625,44.8,0L0,2.852C3.734,19.341,6.426,34.777,6.23,47.292" transform="translate(245.735 77.894)" fill="#6d5dd3"/>
    <path id="Fill_136" data-name="Fill 136" d="M6.077,48.591h0c-.29-2.836-.522-5.756-.768-8.848C4.489,29.41,3.559,17.7,0,5.148L24.687,2.214l2.155,44.267L6.078,48.591ZM28.518,46.31l-2.156-44.3L43.321,0c3.194,9.117,8.582,33.418,8.7,43.923l-23.5,2.388Z" transform="translate(121.477 147.441)" fill="#dadfe4"/>
    <path id="Fill_137" data-name="Fill 137" d="M2.086,44.511,0,.2,1.622,0,3.709,44.34l-1.623.171" transform="translate(146.514 149.296)" fill="#b0c9df"/>
    <path id="Fill_138" data-name="Fill 138" d="M7.56,49.147l44.316-4.782C52.424,34,48.62,17.29,44.422,0L0,5.241C3.6,21.423,7.076,36.735,7.56,49.147" transform="translate(121.477 145.587)" fill="#fdc748"/>
    <path id="Fill_139" data-name="Fill 139" d="M44.592,52.289,0,43.926C3.063,31.333,4.7,15.734,4.62,0l5.643.884a167.851,167.851,0,0,1,1.5,24.036l22.447-.734c.546.743,1.094,1.433,1.725,2.17s1.3,1.514,2.034,2.279A41.846,41.846,0,0,0,42.6,32.82c.406.3.75.556,1.082.79l.91,18.677Zm1.434-5.174h0l-.6-12.365a21.693,21.693,0,0,0,2.1,1.113C47.117,40.271,46.614,44.056,46.027,47.115Zm2.113-19.952h0c-.447-.206-.914-.439-1.39-.692-.586-.308-1.184-.642-1.778-.993l-.079-1.641,3.406-.111c-.043,1.107-.1,2.263-.158,3.436ZM43.233,24.4h0c-.218-.14-.439-.285-.652-.425l-.094-.062.723-.024.025.51Z" transform="translate(239.244 102.003)" fill="#dadfe4"/>
    <path id="Fill_140" data-name="Fill 140" d="M1.506,28.476h0l-.121-.023L.474,9.775c.609.428,1.177.8,1.739,1.139l.6,12.373a38.722,38.722,0,0,1-1.31,5.189ZM1.762,1.641h0C1.187,1.3.6.938.025.567L0,.055,1.683,0l.079,1.639Z" transform="translate(282.828 126.113)" fill="#b0c9df"/>
    <path id="Fill_141" data-name="Fill 141" d="M1.5,24.036h0A167.736,167.736,0,0,0,0,0L.347.053A132.386,132.386,0,0,1,2.273,22.564l23.288-1.2-1.8,1.682c.064.089.124.173.185.255L1.5,24.036Zm30.72-1h0l-.121-.08-.2-.134c-.7-.454-1.462-.98-2.393-1.654l3.34-.172.1,2.016-.723.024Zm2.405-.079h0l-.1-2.047,3.579-.184c-.021.717-.046,1.41-.074,2.121l-3.4.111Z" transform="translate(249.445 102.931)" fill="#719cc6"/>
    <path id="Fill_142" data-name="Fill 142" d="M.1,1.855,0,.077,1.751,0l.1,1.806L.1,1.855" transform="translate(281.9 123.331)" fill="#83a9ce"/>
    <path id="Fill_143" data-name="Fill 143" d="M1.933,22.255A130.109,130.109,0,0,0,0,0L37.82,5.833c.227,3.306.268,8.644.08,14.6l-3.593.182-1.687.086-3.352.17c-.713-.51-1.414-1.025-2.093-1.523l-1.869,1.724L1.933,22.255" transform="translate(249.445 102.931)" fill="#3769a4"/>
    <path id="Fill_144" data-name="Fill 144" d="M0,43.735,43.383,51c3.359-9.674,4.212-26.537,4.837-44.052L3.529,0C3.619,16.534,2.913,31.84,0,43.735" transform="translate(240.172 100.149)" fill="#fffffe"/>
    <path id="Fill_145" data-name="Fill 145" d="M7.289,0c.878.939,1.618,1.772,2.374,2.687q1.13,1.342,2.209,2.718,2.159,2.754,4.12,5.686c1.29,1.973,2.561,3.965,3.686,6.089a52.916,52.916,0,0,1,3.1,6.623l.339.868.084.221.106.319.2.641c.106.405.195.8.275,1.187.059.37.128.75.171,1.108a26.8,26.8,0,0,1,.136,4.008,53.2,53.2,0,0,1-.8,7.22,87.19,87.19,0,0,1-3.536,13.482L14.94,51.732c.358-4.386.686-8.858.806-13.164a60.613,60.613,0,0,0-.1-6.264,18.426,18.426,0,0,0-.39-2.721l-.139-.552-.154-.443-.521-1.077A73.984,73.984,0,0,0,7.9,16.911c-1.243-1.722-2.55-3.415-3.871-5.1q-.988-1.262-2.015-2.49L0,6.943,7.289,0" transform="translate(338.466 103.858)" fill="#be5b52"/>
    <path id="Fill_146" data-name="Fill 146" d="M3.444,0,0,3.58,6.72,7.418S9.045,4.425,8.134,1.365L3.444,0" transform="translate(350.521 153.932)" fill="#bd5b52"/>
    <path id="Fill_147" data-name="Fill 147" d="M0,5.222l6.507,2.2,4.621-3.627L4.446,0,0,5.222" transform="translate(345.884 157.642)" fill="#bd5b52"/>
    <path id="Fill_148" data-name="Fill 148" d="M42.631,51.929,0,42.631A317.6,317.6,0,0,1,9.3,0L51.929,9.3a388.591,388.591,0,0,0-9.3,42.632" transform="translate(321.774 126.113)" fill="#3769a4"/>
    <path id="Fill_149" data-name="Fill 149" d="M41.442,53.784,0,41.442,12.342,0,53.784,12.341,41.442,53.784" transform="translate(317.138 125.186)" fill="#fffffe"/>
    <path id="Fill_150" data-name="Fill 150" d="M.926.953c-.021.512-.245.915-.5.9S-.019,1.415,0,.9.246-.013.5,0,.947.441.926.953" transform="translate(319.92 75.112)" fill="#132529"/>
    <path id="Fill_151" data-name="Fill 151" d="M2.782,0A21.661,21.661,0,0,1,0,4.864,2.837,2.837,0,0,0,2.513,5.5L2.782,0" transform="translate(318.065 76.966)" fill="#a92d2f"/>
    <path id="Fill_152" data-name="Fill 152" d="M2.543.925,2.72.839A.2.2,0,0,0,2.678.518,3.259,3.259,0,0,0,.193.081.226.226,0,0,0,.014.372.3.3,0,0,0,.365.514,2.61,2.61,0,0,1,2.327.878a.325.325,0,0,0,.216.046" transform="translate(320.847 72.33)" fill="#132529"/>
    <path id="Fill_153" data-name="Fill 153" d="M14.991,0c-1.026,4.788-1.7,11.421,1.7,14.616,0,0-1.407,4.857-10.537,4.857-10.04,0-4.774-4.262-4.774-4.262C5.57,13.949,5.595,9.317,4.689,5.6L14.991,0" transform="translate(322.702 84.385)" fill="#bd5b52"/>
    <path id="Fill_154" data-name="Fill 154" d="M2.052,1.607C1.322,1.607.391,1.52.1,1.1A.6.6,0,0,1,.12.414.794.794,0,0,1,.625.045,1.436,1.436,0,0,1,1,0a8.557,8.557,0,0,1,3.15,1.128l.076.162L4.1,1.42A11.821,11.821,0,0,1,2.052,1.607ZM1.01.314A1.13,1.13,0,0,0,.7.35.482.482,0,0,0,.392.571C.278.766.316.864.356.921c.168.236.795.372,1.721.372a11.088,11.088,0,0,0,1.514-.108A7.018,7.018,0,0,0,1.01.314Z" transform="translate(314.356 327.338)" fill="#3769a4"/>
    <path id="Fill_155" data-name="Fill 155" d="M2.318,3.021h0l-.064-.014C1.453,2.646-.124,1.2.008.449.038.271.167.051.6.006.645,0,.688,0,.729,0a1.146,1.146,0,0,1,.746.278,4.406,4.406,0,0,1,1,2.569l-.067.144-.092.03ZM.725.316.63.321C.437.34.333.4.32.5.242.942,1.3,2.082,2.125,2.579A3.6,3.6,0,0,0,1.271.521.829.829,0,0,0,.725.316Z" transform="translate(316.21 325.484)" fill="#3769a4"/>
    <path id="Fill_156" data-name="Fill 156" d="M7.418,15.764H.486L0,0H6.934l.485,15.764" transform="translate(318.992 312.501)" fill="#bd5b52"/>
    <path id="Fill_157" data-name="Fill 157" d="M15.1,0h7.2a.565.565,0,0,1,.555.446l1.228,5.8a.965.965,0,0,1-.964,1.16c-2.6-.044-6.35-.194-9.614-.194-3.818,0-6.227.207-10.7.207C.1,7.418-.618,4.71.519,4.465c5.174-1.117,8.5-1.236,12.99-3.956A3.108,3.108,0,0,1,15.1,0" transform="translate(304.156 327.338)" fill="#0a1629"/>
    <path id="Fill_158" data-name="Fill 158" d="M6.7,0C13.187.068,22.255,16.02,22.255,16.02L12.2,25.965A23.7,23.7,0,0,1,1.949,15.733C-1.887,8.129.066-.069,6.7,0" transform="translate(335.684 100.149)" fill="#3769a4"/>
    <path id="Fill_159" data-name="Fill 159" d="M3.13,25.037c.226-4.763.628-9.778,1.3-14.869a11.151,11.151,0,0,0,.094-1.425A10.622,10.622,0,0,0,0,0C5.706,3.478,12.055,15.521,12.055,15.521l-1.4,1.489L3.13,25.037" transform="translate(344.957 101.076)" fill="#3a81eb"/>
    <path id="Fill_160" data-name="Fill 160" d="M1.338,8.362c-1.445,7.16-2.481,21.863,1.076,50.985H37.833c.271-4.718-2.005-25.306,1.018-47.411A10.325,10.325,0,0,0,29.193.241L28.8.221a130.014,130.014,0,0,0-15.056,0C12.085.373,10.452.613,9,.87A9.518,9.518,0,0,0,1.338,8.362" transform="translate(310.647 98.294)" fill="#3769a4"/>
    <path id="Fill_161" data-name="Fill 161" d="M38.107,59.746H2.419C1.179,49.6.4,40.445.117,32.524a13.822,13.822,0,0,0,9.077-8c3.255-3.3,7.213-8.413,7.588-14.062.02-.308.03-.618.03-.921,0-5.133-2.764-8.719-6.717-8.719a7.983,7.983,0,0,0-2.132.308A9.681,9.681,0,0,1,9.05.876c1.693-.3,3.3-.518,4.789-.653C15.462.075,17.624,0,20.264,0c3.586,0,7.018.14,8.745.223l.391.02A10.389,10.389,0,0,1,39.23,10.6a10.719,10.719,0,0,1-.1,1.412,187.435,187.435,0,0,0-1.6,25.56c0,6.2.237,11.624.41,15.583.1,2.393.187,4.284.187,5.588,0,.39-.008.725-.023,1ZM.057,30.642C.03,29.671.011,28.722,0,27.819l.093-.1c-.046.84-.058,1.795-.035,2.92Z" transform="translate(310.647 98.294)" fill="#3f8cff"/>
    <path id="Fill_162" data-name="Fill 162" d="M.524,1.855C.5,1.22.484.6.472,0,.487.607.5,1.227.524,1.855" transform="translate(309.685 129.823)" fill="#9aa9b8"/>
    <path id="Fill_163" data-name="Fill 163" d="M.071,8.346C.051,7.786.033,7.235.018,6.694c-.028-1.2-.026-2.32.029-3.36q.4-.424.789-.854.353-.386.7-.776L5.163,3.748A38.337,38.337,0,0,0,9.273,0a14.208,14.208,0,0,1-9.2,8.346" transform="translate(310.647 123.331)" fill="#3576d6"/>
    <path id="Fill_164" data-name="Fill 164" d="M.243,7.965h0L0,0H0L.243,7.965" transform="translate(325.424 312.501)" fill="#bebfbb"/>
    <path id="Fill_165" data-name="Fill 165" d="M6.491,8.346H.225V8.331L0,0H6.266l.226,8.346" transform="translate(318.992 312.501)" fill="#914642"/>
    <path id="Fill_166" data-name="Fill 166" d="M19.41,10.006c-.766,6.547-.876,10.411-4.427,13.645C9.642,28.514,1.575,25.181.34,18.567-.772,12.614.667,2.909,7.335.559A8.968,8.968,0,0,1,19.41,10.006" transform="translate(319.92 65.839)" fill="#bd5b52"/>
    <path id="Fill_167" data-name="Fill 167" d="M6.556,19.768c-2.053.459-2.982-4.324-.891-6.16C3.806,12.69,1.116,11.36.22,9.36c-1.03-2.3,1.765-5.051,4.167-4.936C3.612,2.893,5.331-1.2,10.226.343c5.01,1.581,7.214,3.928,7.214,3.928s1.618-5.305,5.026-1.02c3.028,3.808,1.829,7.061,1.829,7.061s4.494,4.214,3.332,7.352a7.683,7.683,0,0,1-3.718,4.247s.68,7.375-4.787,9.146-8.908-1.875-8.452-3.98c-3.532.192-7.135-4.477-4.113-7.308" transform="translate(318.992 58.42)" fill="#233862"/>
    <path id="Fill_168" data-name="Fill 168" d="M5.531,3.05A8.039,8.039,0,0,1,3.266,7.594C1.641,9.192.138,8.049.012,5.979-.1,4.115.606,1.038,2.516.217,4.4-.592,5.8.974,5.531,3.05" transform="translate(322.702 75.112)" fill="#bd5b52"/>
    <path id="Fill_169" data-name="Fill 169" d="M12.055,15.465,6.013,17.619,0,2.154,6.042,0l6.013,15.465" transform="translate(370.921 304.156)" fill="#bd5b52"/>
    <path id="Fill_170" data-name="Fill 170" d="M.6,2.514a.657.657,0,0,1-.186-.025.6.6,0,0,1-.409-.556.8.8,0,0,1,.169-.6C.843.433,3.335.042,3.617,0l.161.082L3.759.261A11.621,11.621,0,0,1,2.264,1.676,3.409,3.409,0,0,1,.6,2.514ZM3.212.393A7.064,7.064,0,0,0,.645,1.3a1.2,1.2,0,0,0-.219.219.486.486,0,0,0-.108.366c.032.225.123.277.189.3a.389.389,0,0,0,.11.015c.563,0,1.757-.93,2.6-1.806Z" transform="translate(371.849 320.847)" fill="#3769a4"/>
    <path id="Fill_171" data-name="Fill 171" d="M2.493,1.752C1.5,1.752.321,1.529.059,1.041-.026.883-.061.63.253.328A1.137,1.137,0,0,1,1.07,0h.035A4.436,4.436,0,0,1,3.483,1.4l.037.154-.055.081-.059.028A4.041,4.041,0,0,1,2.493,1.752ZM1.064.319A.814.814,0,0,0,.541.495L.469.557c-.206.2-.152.3-.134.331.182.339,1.265.549,2.163.549a4.5,4.5,0,0,0,.542-.03A3.6,3.6,0,0,0,1.1.319Z" transform="translate(371.849 319.92)" fill="#3769a4"/>
    <path id="Fill_172" data-name="Fill 172" d="M5.11,4.535,10.738.126A.608.608,0,0,1,11.47.119l4.837,3.6a.9.9,0,0,1,.023,1.46C14.271,6.733,10.3,9.922,7.872,12.069c-2.838,2.511-.629.832-3.956,3.777-2.012,1.781-4.474.334-3.8-.588C3.162,11.065,3.81,8.568,4.2,5.892A2.231,2.231,0,0,1,5.11,4.535" transform="translate(370.921 315.283)" fill="#0a1629"/>
    <path id="Fill_173" data-name="Fill 173" d="M9.273,5.392,6.782,0,0,4.221S2.235,8.813,6.862,8.307L9.273,5.392" transform="translate(268.918 117.768)" fill="#bd5b52"/>
    <path id="Fill_174" data-name="Fill 174" d="M2.435.555.812,1.926A2.261,2.261,0,0,0,.738,5.333L2,6.491,9.273,2.085,4.908.195a2.381,2.381,0,0,0-2.473.36" transform="translate(267.063 115.913)" fill="#bd5b52"/>
    <path id="Fill_175" data-name="Fill 175" d="M1.551,4.015,0,0,1.554,4.014h0Z" transform="translate(378.178 308.793)" fill="#bebfbb"/>
    <path id="Fill_176" data-name="Fill 176" d="M1.252,6.491l-.1-.266L0,3.2,5.8,0,7.418,4.243,1.252,6.491" transform="translate(372.776 308.792)" fill="#914642"/>
    <path id="Fill_177" data-name="Fill 177" d="M0,0S11.188,51.389,15.468,70.464c4.687,20.89,29.345,84.4,29.345,84.4l10.825-5.854S44.058,99.182,35.594,72C32.524,49.534,23.141,0,23.141,0H0" transform="translate(325.484 158.569)" fill="#0a1629"/>
    <path id="Fill_178" data-name="Fill 178" d="M0,5.007,2.242,9.273,15.764,4.158,14.689,0,0,5.007" transform="translate(367.212 305.083)" fill="#3f8cff"/>
    <path id="Fill_179" data-name="Fill 179" d="M.6.927C.528.609.455.3.385,0l0,0q.1.415.209.85C.6.878.6.9.6.927" transform="translate(340.292 229.044)" fill="#a0a29f"/>
    <path id="Fill_180" data-name="Fill 180" d="M.559.752l0,0C.512.565.47.383.431.2h0q.06.268.125.547" transform="translate(340.289 229.029)" fill="#939692"/>
    <path id="Fill_181" data-name="Fill 181" d="M.847,3.709h0c-.006-.025-.01-.05-.015-.075C.6,2.519.358,1.3.094,0h0C.359,1.3.605,2.521.832,3.638c0,.024.01.048.015.072" transform="translate(340.314 225.335)" fill="#1d5697"/>
    <path id="Fill_182" data-name="Fill 182" d="M.927,4.637h0C.639,3.206.329,1.651,0,0,.33,1.652.639,3.2.927,4.637" transform="translate(339.393 220.698)" fill="#8593a0"/>
    <path id="Fill_183" data-name="Fill 183" d="M10.187,48.22q-.106-.448-.2-.876-.063-.279-.121-.549c0-.021-.01-.044-.014-.065-.219-1.016-.457-2.125-.711-3.312-.328-1.528-.681-3.186-1.056-4.95C5.761,27.547,2.624,12.627,0,.129A2.594,2.594,0,0,1,.831,0,3.289,3.289,0,0,1,1.3.034c8.105,1.122,9.031,30.742,8.884,48.185" transform="translate(331.047 181.752)"/>
    <path id="Fill_184" data-name="Fill 184" d="M2.43,0S-.415,49.8.052,70.116C.536,91.244,6.5,160.424,6.5,160.424H17.839s1.854-67.946,2.625-88.7C21.306,49.107,25.965,0,25.965,0H2.43" transform="translate(310.647 158.569)" fill="#0a1629"/>
    <path id="Fill_185" data-name="Fill 185" d="M0,0,.581,4.637H14.409L14.837.5,0,0" transform="translate(314.356 314.356)" fill="#3f8cff"/>
    <path id="Fill_186" data-name="Fill 186" d="M49.147,4.977A74.609,74.609,0,0,1,44,12.822,81.063,81.063,0,0,1,37.971,19.9c-2.12,2.24-4.35,4.354-6.639,6.36-2.257,2.009-4.692,3.925-6.844,5.682l-.764.623-.625.224a10.722,10.722,0,0,1-4.8.526,15.213,15.213,0,0,1-3.876-.992A25.264,25.264,0,0,1,8.579,28.9a41.945,41.945,0,0,1-4.633-4.153c-.708-.733-1.377-1.5-2.035-2.262S.637,20.958,0,20.083l3.66-3.4c1.428,1.053,2.956,2.19,4.482,3.17A51.011,51.011,0,0,0,12.73,22.6a20.27,20.27,0,0,0,4.426,1.785,6.13,6.13,0,0,0,1.758.211,1.691,1.691,0,0,0,.881-.235l-1.387.847c2.264-2.1,4.313-3.975,6.357-5.957Q27.8,16.3,30.575,13.2c1.836-2.084,3.606-4.205,5.236-6.409C37.458,4.594,38.937,2.307,40.358,0l8.789,4.977" transform="translate(273.555 105.713)" fill="#be5b52"/>
    <path id="Fill_187" data-name="Fill 187" d="M25.934,9.5C25.3,18.953,14.289,26.892,14.289,26.892L0,19.174S5.264,8.032,12.353,2.773C21.111-3.724,26.418,2.3,25.934,9.5" transform="translate(301.374 99.222)" fill="#3769a4"/>
    <path id="Fill_188" data-name="Fill 188" d="M14.289,26.892,1.681,20.082,0,19.174S5.264,8.032,12.353,2.773C14.982.822,17.3,0,19.245,0c4.256,0,6.717,3.938,6.719,8.591q0,.45-.031.907C25.3,18.953,14.289,26.892,14.289,26.892" transform="translate(301.374 99.222)" fill="#3f8cff"/>
  </g>
</svg>
