<svg id="Layer_1" data-name="Layer 1" xmlns="http://www.w3.org/2000/svg" viewBox="0 0 982 982"><defs><style>.cls-1{fill:#3f8cff;}</style></defs><path class="cls-1" d="M861.1,49H218.9A169.8,169.8,0,0,0,49,218.9V861.1A169.8,169.8,0,0,0,218.9,1031H861.1A169.8,169.8,0,0,0,1031,861.1V218.9A169.8,169.8,0,0,0,861.1,49ZM708.5,251.5s-6.6,30.3-34.5,56.6c-12.1,11.3-19.2,14.1-60.6,32.3-58.1,25.7-134.5,37.1-144.5,75.9-1.1,4.1-2,10.7.1,19.8,32.2,8.3,56.6,6,73.2,2.2,34-7.8,51.3-24.8,107.9-42.6,13.4-4.2,31.2-9.3,44.3,0,10.2,7.3,13.1,20.1,14.1,27.4-.9,23.8-6.2,54.1-28.2,73.8-15.4,13.9-33.2,17-39.4,18.3-32.7,6.4-89.1,26.9-193.8,86.1-2.5,5.3-4.4,11.7-1.8,17,1.5,3,6.8,10.5,43.4,9.9,21.2-.4,31.8-.6,52.2-6,59.5-15.9,73.1-43.4,122.1-46.4,42.4-2.7,42.4,16.3,44.7,36.2s-33.2,65.1-60.2,75.7-115,48.2-173,76.9S375,869.9,375,869.9c0-161.4,54.4-161,54.4-161h-2.2c-25.3,0-37.6-7.9-37.6-7.9a40.6,40.6,0,0,1-12.4-12.4c-3.9-18.6-14.5-81.2,22.6-134a146.2,146.2,0,0,1,26.5-28.4c-2.9.7-21.8,5-37.7-7.1A43.2,43.2,0,0,1,375.4,502a155.2,155.2,0,0,1-4.4-53.6c5.8-58.2,45.3-96.5,74.8-124.3,78-73.6,172.7-102.2,226.5-114C726.2,212.9,708.5,251.5,708.5,251.5Z" transform="translate(-49 -49)"/></svg>