<svg id="Layer_1" data-name="Layer 1" xmlns="http://www.w3.org/2000/svg" viewBox="0 0 1080 1080"><defs><style>.cls-1{fill:#fff;}</style></defs><path class="cls-1" d="M814,121H266A145,145,0,0,0,121,266V814A145,145,0,0,0,266,959H814A145,145,0,0,0,959,814V266A145,145,0,0,0,814,121ZM683.8,293.8s-5.7,25.8-29.5,48.3c-10.3,9.7-16.3,12-51.6,27.6-49.6,21.9-114.9,31.6-123.4,64.7a34.9,34.9,0,0,0,.1,16.9c27.5,7.1,48.3,5.2,62.5,1.9,29-6.7,43.7-21.1,92.1-36.3,11.4-3.6,26.5-7.9,37.7,0,8.8,6.2,11.3,17.1,12.1,23.4-.7,20.2-5.3,46.1-24,62.9-13.3,11.8-28.4,14.5-33.7,15.6-27.9,5.5-76,23-165.4,73.5-2.1,4.5-3.7,10-1.5,14.5,1.2,2.6,5.8,9,37,8.4,18.1-.3,27.2-.4,44.6-5.1,50.8-13.5,62.4-37,104.1-39.6,36.3-2.3,36.3,14,38.2,31S654.8,657,631.7,666s-98.1,41.2-147.6,65.7-84.9,89.8-84.9,89.8c0-137.7,46.4-137.4,46.4-137.4h-1.9c-21.5,0-32-6.7-32-6.7a35.8,35.8,0,0,1-10.6-10.6c-3.3-15.9-12.4-69.3,19.3-114.4A120.6,120.6,0,0,1,443,528.2c-2.5.6-18.7,4.3-32.2-6a36,36,0,0,1-11.2-14.7,129,129,0,0,1-3.8-45.6c4.9-49.7,38.6-82.4,63.8-106.2C526.2,293,607,268.5,652.9,258.5,698.9,260.9,683.8,293.8,683.8,293.8Z"/></svg>